<svg width="20" height="20" viewBox="0 0 20 20" fill="none" xmlns="http://www.w3.org/2000/svg">
<path d="M15 15.7174H14.3667C13.7 15.7174 13.0667 15.9758 12.6 16.4424L11.175 17.8508C10.525 18.4925 9.46667 18.4925 8.81667 17.8508L7.39166 16.4424C6.925 15.9758 6.28333 15.7174 5.625 15.7174H5C3.61667 15.7174 2.5 14.6091 2.5 13.2425V4.15076C2.5 2.78409 3.61667 1.67578 5 1.67578H15C16.3833 1.67578 17.5 2.78409 17.5 4.15076V13.2425C17.5 14.6008 16.3833 15.7174 15 15.7174Z" stroke="#ADB0ED" stroke-width="1.5" stroke-miterlimit="10" stroke-linecap="round" stroke-linejoin="round"/>
<path d="M5.83301 7.633C5.83301 6.858 6.46634 6.22461 7.24134 6.22461C8.01634 6.22461 8.64968 6.858 8.64968 7.633C8.64968 9.19966 6.42467 9.36633 5.933 10.858C5.833 11.1663 6.09134 11.4747 6.41634 11.4747H8.64968" stroke="#ADB0ED" stroke-width="1.5" stroke-linecap="round" stroke-linejoin="round"/>
<path d="M13.3665 11.4661V6.70777C13.3665 6.4911 13.2248 6.29939 13.0165 6.24105C12.8081 6.18272 12.5831 6.26605 12.4665 6.44939C11.8665 7.41605 11.2165 8.51606 10.6498 9.48273C10.5581 9.64106 10.5581 9.8494 10.6498 10.0077C10.7415 10.1661 10.9165 10.266 11.1081 10.266H14.1665" stroke="#ADB0ED" stroke-width="1.5" stroke-linecap="round" stroke-linejoin="round"/>
</svg>
