<svg width="16" height="17" viewBox="0 0 16 17" fill="none" xmlns="http://www.w3.org/2000/svg">
<path d="M6.1665 6.5332C7.35317 6.96654 8.6465 6.96654 9.83317 6.5332" stroke="#727880" stroke-width="1.5" stroke-linecap="round" stroke-linejoin="round"/>
<path d="M11.2134 1.83398H4.78671C3.36671 1.83398 2.21338 2.99398 2.21338 4.40732V13.8007C2.21338 15.0007 3.07338 15.5073 4.12671 14.9273L7.38005 13.1207C7.72671 12.9273 8.28671 12.9273 8.62671 13.1207L11.88 14.9273C12.9334 15.514 13.7934 15.0073 13.7934 13.8007V4.40732C13.7867 2.99398 12.6334 1.83398 11.2134 1.83398Z" stroke="#727880" stroke-width="1.5" stroke-linecap="round" stroke-linejoin="round"/>
<path d="M11.2134 1.83398H4.78671C3.36671 1.83398 2.21338 2.99398 2.21338 4.40732V13.8007C2.21338 15.0007 3.07338 15.5073 4.12671 14.9273L7.38005 13.1207C7.72671 12.9273 8.28671 12.9273 8.62671 13.1207L11.88 14.9273C12.9334 15.514 13.7934 15.0073 13.7934 13.8007V4.40732C13.7867 2.99398 12.6334 1.83398 11.2134 1.83398Z" stroke="#727880" stroke-width="1.5" stroke-linecap="round" stroke-linejoin="round"/>
</svg>
