<svg width="16" height="16" viewBox="0 0 16 16" fill="none" xmlns="http://www.w3.org/2000/svg">
<path d="M8.1333 7.86681L7.19327 8.80681C6.67327 9.32681 6.67327 10.1735 7.19327 10.6935C7.71327 11.2135 8.55995 11.2135 9.07995 10.6935L10.56 9.21349C11.6 8.17349 11.6 6.48682 10.56 5.44016C9.51997 4.40016 7.83328 4.40016 6.78662 5.44016L5.1733 7.05348C4.27996 7.94681 4.27996 9.39348 5.1733 10.2868" stroke="#C6C8CB" stroke-width="1.5" stroke-linecap="round" stroke-linejoin="round"/>
<path d="M8.00004 14.6654C11.6819 14.6654 14.6667 11.6806 14.6667 7.9987C14.6667 4.3168 11.6819 1.33203 8.00004 1.33203C4.31814 1.33203 1.33337 4.3168 1.33337 7.9987C1.33337 11.6806 4.31814 14.6654 8.00004 14.6654Z" stroke="#C6C8CB" stroke-width="1.5" stroke-linecap="round" stroke-linejoin="round"/>
</svg>
