<svg width="12" height="12" viewBox="0 0 12 12" fill="none" xmlns="http://www.w3.org/2000/svg">
<path d="M9.62 2.7893H9.42L7.73 1.0993C7.595 0.964297 7.375 0.964297 7.235 1.0993C7.1 1.2343 7.1 1.4543 7.235 1.5943L8.43 2.7893H3.57L4.765 1.5943C4.9 1.4593 4.9 1.2393 4.765 1.0993C4.63 0.964297 4.41 0.964297 4.27 1.0993L2.585 2.7893H2.385C1.935 2.7893 1 2.7893 1 4.0693C1 4.5543 1.1 4.8743 1.31 5.0843C1.43 5.2093 1.575 5.2743 1.73 5.3093C1.875 5.3443 2.03 5.3493 2.18 5.3493H9.82C9.975 5.3493 10.12 5.3393 10.26 5.3093C10.68 5.2093 11 4.9093 11 4.0693C11 2.7893 10.065 2.7893 9.62 2.7893Z" fill="white"/>
<path d="M9.54498 6H2.45498C2.14498 6 1.90998 6.275 1.95998 6.58L2.37998 9.15C2.51998 10.01 2.89497 11 4.55997 11H7.36497C9.04997 11 9.34998 10.155 9.52997 9.21L10.035 6.595C10.095 6.285 9.85998 6 9.54498 6ZM7.43998 8.025L5.81498 9.525C5.74498 9.59 5.65497 9.625 5.55997 9.625C5.46497 9.625 5.36998 9.59 5.29498 9.515L4.54498 8.765C4.39998 8.62 4.39998 8.38 4.54498 8.235C4.69498 8.09 4.92997 8.09 5.07997 8.235L5.57497 8.73L6.93498 7.475C7.08498 7.335 7.32498 7.345 7.46498 7.495C7.60498 7.65 7.59498 7.885 7.43998 8.025Z" fill="white"/>
</svg>
