<svg width="12" height="12" viewBox="0 0 12 12" fill="none" xmlns="http://www.w3.org/2000/svg">
<path d="M8.79999 2.65562L5.97499 1.13562C5.67499 0.975625 5.31999 0.975625 5.01999 1.13562L2.19999 2.65562C1.99499 2.77062 1.86499 2.99062 1.86499 3.23062C1.86499 3.47563 1.98999 3.69563 2.19999 3.80562L5.02499 5.32562C5.17499 5.40562 5.33999 5.44563 5.49999 5.44563C5.65999 5.44563 5.82999 5.40562 5.97499 5.32562L8.79999 3.80562C9.00499 3.69563 9.13499 3.47563 9.13499 3.23062C9.13499 2.99062 9.00499 2.77062 8.79999 2.65562Z" fill="white"/>
<path d="M4.56 5.85529L1.935 4.54529C1.73 4.44029 1.5 4.45529 1.305 4.57029C1.115 4.69029 1 4.89529 1 5.12029V7.60029C1 8.03029 1.24 8.41529 1.625 8.61029L4.25 9.92029C4.34 9.96529 4.44 9.99029 4.54 9.99029C4.655 9.99029 4.775 9.95529 4.88 9.89529C5.07 9.77529 5.185 9.57029 5.185 9.34529V6.86529C5.18 6.43529 4.94 6.05029 4.56 5.85529Z" fill="white"/>
<path d="M9.99995 5.12029V6.35029C9.75995 6.28029 9.50495 6.25029 9.24995 6.25029C8.56995 6.25029 7.90495 6.48529 7.37995 6.90529C6.65995 7.47029 6.24995 8.32529 6.24995 9.25029C6.24995 9.49529 6.27995 9.74029 6.34495 9.97529C6.26995 9.96529 6.19495 9.93529 6.12495 9.89029C5.93495 9.77529 5.81995 9.57029 5.81995 9.34529V6.86529C5.81995 6.43529 6.05995 6.05029 6.43995 5.85529L9.06495 4.54529C9.26995 4.44029 9.49995 4.45529 9.69495 4.57029C9.88495 4.69029 9.99995 4.89529 9.99995 5.12029Z" fill="white"/>
<path d="M10.99 7.83477C10.58 7.32977 9.955 7.00977 9.25 7.00977C8.72 7.00977 8.23 7.19477 7.845 7.50477C7.325 7.91477 7 8.54977 7 9.25977C7 9.67977 7.12 10.0798 7.325 10.4198C7.46 10.6448 7.63 10.8398 7.83 10.9998H7.835C8.22 11.3198 8.715 11.5098 9.25 11.5098C9.82 11.5098 10.335 11.2998 10.73 10.9498C10.905 10.7998 11.055 10.6198 11.175 10.4198C11.38 10.0798 11.5 9.67977 11.5 9.25977C11.5 8.71977 11.31 8.21977 10.99 7.83477ZM10.38 8.97976L9.18 10.0898C9.11 10.1548 9.015 10.1898 8.925 10.1898C8.83 10.1898 8.735 10.1548 8.66 10.0798L8.105 9.52477C7.96 9.37977 7.96 9.13977 8.105 8.99477C8.25 8.84977 8.49 8.84977 8.635 8.99477L8.935 9.29477L9.87 8.42977C10.02 8.28977 10.26 8.29977 10.4 8.44977C10.545 8.60477 10.535 8.83976 10.38 8.97976Z" fill="white"/>
</svg>
