<svg width="24" height="24" viewBox="0 0 24 24" fill="none" xmlns="http://www.w3.org/2000/svg">
<path d="M20.2102 7.81945L12.5102 12.2795C12.2002 12.4595 11.8102 12.4595 11.4902 12.2795L3.79021 7.81945C3.24021 7.49945 3.10021 6.74945 3.52021 6.27945C3.81021 5.94945 4.14021 5.67945 4.49021 5.48945L9.91021 2.48945C11.0702 1.83945 12.9502 1.83945 14.1102 2.48945L19.5302 5.48945C19.8802 5.67945 20.2102 5.95945 20.5002 6.27945C20.9002 6.74945 20.7602 7.49945 20.2102 7.81945Z" fill="#1B1D1F"/>
<path d="M11.43 14.1409V20.9609C11.43 21.7209 10.66 22.2209 9.97998 21.8909C7.91998 20.8809 4.44998 18.9909 4.44998 18.9909C3.22998 18.3009 2.22998 16.5609 2.22998 15.1309V9.97086C2.22998 9.18086 3.05998 8.68086 3.73998 9.07086L10.93 13.2409C11.23 13.4309 11.43 13.7709 11.43 14.1409Z" fill="#1B1D1F"/>
<path d="M12.5698 14.1409V20.9609C12.5698 21.7209 13.3398 22.2209 14.0198 21.8909C16.0798 20.8809 19.5498 18.9909 19.5498 18.9909C20.7698 18.3009 21.7698 16.5609 21.7698 15.1309V9.97086C21.7698 9.18086 20.9398 8.68086 20.2598 9.07086L13.0698 13.2409C12.7698 13.4309 12.5698 13.7709 12.5698 14.1409Z" fill="#1B1D1F"/>
</svg>
