<svg width="16" height="16" viewBox="0 0 16 16" fill="none" xmlns="http://www.w3.org/2000/svg">
<path d="M10.1463 4.36719H3.85301C3.66634 4.36719 3.49301 4.37385 3.33301 4.38052C1.75301 4.47385 1.33301 5.05385 1.33301 6.85385V7.24052C1.33301 7.60719 1.63301 7.90719 1.99967 7.90719H11.9997C12.3663 7.90719 12.6663 7.60719 12.6663 7.24052V6.85385C12.6663 4.86719 12.1597 4.36719 10.1463 4.36719Z" fill="#C6C8CB"/>
<path d="M1.99967 8.90625C1.63301 8.90625 1.33301 9.20625 1.33301 9.57292V11.5129C1.33301 13.4996 1.83967 13.9996 3.85301 13.9996H10.1463C12.1263 13.9996 12.6463 13.5196 12.6663 11.6196V9.57292C12.6663 9.20625 12.3663 8.90625 11.9997 8.90625H1.99967ZM4.63967 12.3729H3.49967C3.22634 12.3729 2.99967 12.1462 2.99967 11.8729C2.99967 11.5996 3.22634 11.3729 3.49967 11.3729H4.64634C4.91967 11.3729 5.14634 11.5996 5.14634 11.8729C5.14634 12.1462 4.91967 12.3729 4.63967 12.3729ZM8.36634 12.3729H6.07301C5.79967 12.3729 5.57301 12.1462 5.57301 11.8729C5.57301 11.5996 5.79967 11.3729 6.07301 11.3729H8.36634C8.63967 11.3729 8.86634 11.5996 8.86634 11.8729C8.86634 12.1462 8.64634 12.3729 8.36634 12.3729Z" fill="#C6C8CB"/>
<path d="M14.6671 8.88706V5.39372C14.6671 3.30706 13.4737 2.40039 11.6737 2.40039H5.7204C5.21373 2.40039 4.7604 2.47372 4.3604 2.62706C4.04706 2.74039 3.76706 2.90706 3.5404 3.12706C3.4204 3.24039 3.51373 3.42706 3.68706 3.42706H10.9337C12.4337 3.42706 13.6471 4.64039 13.6471 6.14039V10.9204C13.6471 11.0871 13.8271 11.1804 13.9471 11.0604C14.4071 10.5737 14.6671 9.86039 14.6671 8.88706Z" fill="#C6C8CB"/>
</svg>
