<svg width="16" height="16" viewBox="0 0 16 16" fill="none" xmlns="http://www.w3.org/2000/svg">
<path d="M14.6668 14.666H1.3335C1.06016 14.666 0.833496 14.4393 0.833496 14.166C0.833496 13.8927 1.06016 13.666 1.3335 13.666H14.6668C14.9402 13.666 15.1668 13.8927 15.1668 14.166C15.1668 14.4393 14.9402 14.666 14.6668 14.666Z" fill="#C6C8CB"/>
<path d="M6.5 2.66732V14.6673H9.5V2.66732C9.5 1.93398 9.2 1.33398 8.3 1.33398H7.7C6.8 1.33398 6.5 1.93398 6.5 2.66732Z" fill="#C6C8CB"/>
<path d="M2 6.66732V14.6673H4.66667V6.66732C4.66667 5.93398 4.4 5.33398 3.6 5.33398H3.06667C2.26667 5.33398 2 5.93398 2 6.66732Z" fill="#C6C8CB"/>
<path d="M11.3335 9.99935V14.666H14.0002V9.99935C14.0002 9.26602 13.7335 8.66602 12.9335 8.66602H12.4002C11.6002 8.66602 11.3335 9.26602 11.3335 9.99935Z" fill="#C6C8CB"/>
</svg>
