<svg width="20" height="20" viewBox="0 0 20 20" fill="none" xmlns="http://www.w3.org/2000/svg">
<path d="M12.6667 10.6007V13.4007C12.6667 15.734 11.7334 16.6673 9.40004 16.6673H6.60004C4.26671 16.6673 3.33337 15.734 3.33337 13.4007V10.6007C3.33337 8.26732 4.26671 7.33398 6.60004 7.33398H9.40004C11.7334 7.33398 12.6667 8.26732 12.6667 10.6007Z" stroke="#9DA2A7" stroke-width="1.5" stroke-linecap="round" stroke-linejoin="round"/>
<path d="M16.6667 6.60065V9.40065C16.6667 11.734 15.7334 12.6673 13.4 12.6673H12.6667V10.6007C12.6667 8.26732 11.7334 7.33398 9.40004 7.33398H7.33337V6.60065C7.33337 4.26732 8.26671 3.33398 10.6 3.33398H13.4C15.7334 3.33398 16.6667 4.26732 16.6667 6.60065Z" stroke="#9DA2A7" stroke-width="1.5" stroke-linecap="round" stroke-linejoin="round"/>
</svg>
