<svg width="20" height="20" viewBox="0 0 20 20" fill="none" xmlns="http://www.w3.org/2000/svg">
<path d="M10 1.66699V7.50033L11.6667 5.83366" stroke="#ADB0ED" stroke-width="1.5" stroke-linecap="round" stroke-linejoin="round"/>
<path d="M9.99967 7.49967L8.33301 5.83301" stroke="#ADB0ED" stroke-width="1.5" stroke-linecap="round" stroke-linejoin="round"/>
<path d="M1.65039 10.833H5.32539C5.64206 10.833 5.92539 11.008 6.06706 11.2913L7.04206 13.2413C7.32539 13.808 7.90039 14.1663 8.53372 14.1663H11.4754C12.1087 14.1663 12.6837 13.808 12.9671 13.2413L13.9421 11.2913C14.0837 11.008 14.3754 10.833 14.6837 10.833H18.3171" stroke="#ADB0ED" stroke-width="1.5" stroke-linecap="round" stroke-linejoin="round"/>
<path d="M5.83366 3.44141C2.88366 3.87474 1.66699 5.60807 1.66699 9.16641V12.4997C1.66699 16.6664 3.33366 18.3331 7.50033 18.3331H12.5003C16.667 18.3331 18.3337 16.6664 18.3337 12.4997V9.16641C18.3337 5.60807 17.117 3.87474 14.167 3.44141" stroke="#ADB0ED" stroke-width="1.5" stroke-linecap="round" stroke-linejoin="round"/>
</svg>
