<svg width="25" height="24" viewBox="0 0 25 24" fill="none" xmlns="http://www.w3.org/2000/svg">
<path fill-rule="evenodd" clip-rule="evenodd" d="M2.60016 11.9304C2.58016 6.41041 7.05016 1.92041 12.5702 1.90041C18.0902 1.89041 22.5802 6.35041 22.6002 11.8704C22.6202 17.3904 18.1502 21.8804 12.6302 21.9004C7.11016 21.9204 2.62016 17.4504 2.60016 11.9304ZM16.6902 14.6404C16.6902 12.8504 15.6402 12.2704 14.8602 12.0004L13.3502 11.4604V8.08041H13.7102C14.5202 8.08041 15.1802 8.79041 15.1802 9.66041C15.1802 10.0704 15.5202 10.4104 15.9302 10.4104C16.3402 10.4104 16.6802 10.0704 16.6802 9.66041C16.6802 7.96041 15.3502 6.58041 13.7102 6.58041H13.3502V6.00041C13.3502 5.59041 13.0102 5.25041 12.6002 5.25041C12.1902 5.25041 11.8502 5.59041 11.8502 6.00041V6.58041H11.2002C9.72016 6.58041 8.51016 7.82041 8.51016 9.36041C8.51016 11.1504 9.56016 11.7304 10.3402 12.0004L11.8502 12.5404V15.9204H11.4902C10.6802 15.9204 10.0202 15.2104 10.0202 14.3404C10.0202 13.9304 9.68016 13.5904 9.27016 13.5904C8.86016 13.5904 8.52016 13.9304 8.52016 14.3404C8.52016 16.0404 9.85016 17.4204 11.4902 17.4204H11.8502V18.0004C11.8502 18.4104 12.1902 18.7504 12.6002 18.7504C13.0102 18.7504 13.3502 18.4104 13.3502 18.0004V17.4204H14.0002C15.4802 17.4204 16.6902 16.1804 16.6902 14.6404ZM10.0203 9.37057C10.0203 10.2406 10.3303 10.4106 10.8403 10.5906L11.8503 10.9406V8.08057H11.2003C10.5503 8.08057 10.0203 8.66057 10.0203 9.37057ZM13.3602 15.9203H14.0002C14.6502 15.9203 15.1902 15.3403 15.1902 14.6403C15.1902 13.7703 14.8802 13.6003 14.3702 13.4203L13.3602 13.0703V15.9203Z" fill="#1B1D1F"/>
</svg>
