<svg width="16" height="17" viewBox="0 0 16 17" fill="none" xmlns="http://www.w3.org/2000/svg">
<path d="M5.78125 10.0526C5.78125 10.9126 6.44125 11.6059 7.26125 11.6059H8.93458C9.64792 11.6059 10.2279 10.9992 10.2279 10.2526C10.2279 9.43925 9.87458 9.15258 9.34792 8.96591L6.66125 8.03258C6.13458 7.84591 5.78125 7.55924 5.78125 6.74591C5.78125 5.99924 6.36125 5.39258 7.07458 5.39258H8.74792C9.56792 5.39258 10.2279 6.08591 10.2279 6.94591" stroke="#727880" stroke-width="1.5" stroke-linecap="round" stroke-linejoin="round"/>
<path d="M8 4.5V12.5" stroke="#727880" stroke-width="1.5" stroke-linecap="round" stroke-linejoin="round"/>
<path d="M7.99992 15.1673C11.6818 15.1673 14.6666 12.1825 14.6666 8.50065C14.6666 4.81875 11.6818 1.83398 7.99992 1.83398C4.31802 1.83398 1.33325 4.81875 1.33325 8.50065C1.33325 12.1825 4.31802 15.1673 7.99992 15.1673Z" stroke="#727880" stroke-width="1.5" stroke-linecap="round" stroke-linejoin="round"/>
</svg>
