<svg width="20" height="20" viewBox="0 0 20 20" fill="none" xmlns="http://www.w3.org/2000/svg">
<path d="M16.5837 11.25H3.41699C2.16699 11.25 1.66699 11.7833 1.66699 13.1083V16.475C1.66699 17.8 2.16699 18.3333 3.41699 18.3333H16.5837C17.8337 18.3333 18.3337 17.8 18.3337 16.475V13.1083C18.3337 11.7833 17.8337 11.25 16.5837 11.25Z" stroke="#ADB0ED" stroke-width="1.5" stroke-linecap="round" stroke-linejoin="round"/>
<path d="M10.7503 1.66602H3.41699C2.16699 1.66602 1.66699 2.19935 1.66699 3.52435V6.89102C1.66699 8.21602 2.16699 8.74935 3.41699 8.74935H10.7503C12.0003 8.74935 12.5003 8.21602 12.5003 6.89102V3.52435C12.5003 2.19935 12.0003 1.66602 10.7503 1.66602Z" stroke="#ADB0ED" stroke-width="1.5" stroke-linecap="round" stroke-linejoin="round"/>
</svg>
