<svg width="25" height="25" viewBox="0 0 25 25" fill="none" xmlns="http://www.w3.org/2000/svg">
<path d="M9.3335 22.5H15.3335C20.3335 22.5 22.3335 20.5 22.3335 15.5V9.5C22.3335 4.5 20.3335 2.5 15.3335 2.5H9.3335C4.3335 2.5 2.3335 4.5 2.3335 9.5V15.5C2.3335 20.5 4.3335 22.5 9.3335 22.5Z" stroke="#1B1D1F" stroke-width="1.5" stroke-linecap="round" stroke-linejoin="round"/>
<path d="M9.3335 10.5C10.4381 10.5 11.3335 9.60457 11.3335 8.5C11.3335 7.39543 10.4381 6.5 9.3335 6.5C8.22893 6.5 7.3335 7.39543 7.3335 8.5C7.3335 9.60457 8.22893 10.5 9.3335 10.5Z" stroke="#1B1D1F" stroke-width="1.5" stroke-linecap="round" stroke-linejoin="round"/>
<path d="M3.00342 19.4505L7.93342 16.1405C8.72342 15.6105 9.86342 15.6705 10.5734 16.2805L10.9034 16.5705C11.6834 17.2405 12.9434 17.2405 13.7234 16.5705L17.8834 13.0005C18.6634 12.3305 19.9234 12.3305 20.7034 13.0005L22.3334 14.4005" stroke="#1B1D1F" stroke-width="1.5" stroke-linecap="round" stroke-linejoin="round"/>
</svg>
