<svg width="25" height="24" viewBox="0 0 25 24" fill="none" xmlns="http://www.w3.org/2000/svg">
<path d="M22.2002 21.2507H21.2002V9.9807C21.2002 9.3607 20.9202 8.7807 20.4302 8.4007L19.2002 7.4407L19.1802 4.9907C19.1802 4.4407 18.7302 4.0007 18.1802 4.0007H14.7702L13.4302 2.9607C12.7102 2.3907 11.6902 2.3907 10.9702 2.9607L3.9702 8.4007C3.4802 8.7807 3.2002 9.3607 3.2002 9.9707L3.1502 21.2507H2.2002C1.7902 21.2507 1.4502 21.5907 1.4502 22.0007C1.4502 22.4107 1.7902 22.7507 2.2002 22.7507H22.2002C22.6102 22.7507 22.9502 22.4107 22.9502 22.0007C22.9502 21.5907 22.6102 21.2507 22.2002 21.2507ZM6.7002 12.7507V11.2507C6.7002 10.7007 7.1502 10.2507 7.7002 10.2507H9.7002C10.2502 10.2507 10.7002 10.7007 10.7002 11.2507V12.7507C10.7002 13.3007 10.2502 13.7507 9.7002 13.7507H7.7002C7.1502 13.7507 6.7002 13.3007 6.7002 12.7507ZM14.7002 21.2507H9.7002V18.5007C9.7002 17.6707 10.3702 17.0007 11.2002 17.0007H13.2002C14.0302 17.0007 14.7002 17.6707 14.7002 18.5007V21.2507ZM17.7002 12.7507C17.7002 13.3007 17.2502 13.7507 16.7002 13.7507H14.7002C14.1502 13.7507 13.7002 13.3007 13.7002 12.7507V11.2507C13.7002 10.7007 14.1502 10.2507 14.7002 10.2507H16.7002C17.2502 10.2507 17.7002 10.7007 17.7002 11.2507V12.7507Z" fill="#1B1D1F"/>
</svg>
