<svg width="16" height="16" viewBox="0 0 16 16" fill="none" xmlns="http://www.w3.org/2000/svg">
<mask id="path-1-inside-1_3216_19244" fill="white">
<path d="M13.667 11.166H12.167V9.66602C12.167 9.39268 11.9403 9.16602 11.667 9.16602C11.3937 9.16602 11.167 9.39268 11.167 9.66602V11.166H9.66699C9.39366 11.166 9.16699 11.3927 9.16699 11.666C9.16699 11.9393 9.39366 12.166 9.66699 12.166H11.167V13.666C11.167 13.9393 11.3937 14.166 11.667 14.166C11.9403 14.166 12.167 13.9393 12.167 13.666V12.166H13.667C13.9403 12.166 14.167 11.9393 14.167 11.666C14.167 11.3927 13.9403 11.166 13.667 11.166Z"/>
</mask>
<path d="M13.667 11.166H12.167V9.66602C12.167 9.39268 11.9403 9.16602 11.667 9.16602C11.3937 9.16602 11.167 9.39268 11.167 9.66602V11.166H9.66699C9.39366 11.166 9.16699 11.3927 9.16699 11.666C9.16699 11.9393 9.39366 12.166 9.66699 12.166H11.167V13.666C11.167 13.9393 11.3937 14.166 11.667 14.166C11.9403 14.166 12.167 13.9393 12.167 13.666V12.166H13.667C13.9403 12.166 14.167 11.9393 14.167 11.666C14.167 11.3927 13.9403 11.166 13.667 11.166Z" fill="#1B1D1F"/>
<path d="M12.167 11.166H11.167V12.166H12.167V11.166ZM11.167 11.166V12.166H12.167V11.166H11.167ZM11.167 12.166H12.167V11.166H11.167V12.166ZM12.167 12.166V11.166H11.167V12.166H12.167ZM13.667 10.166H12.167V12.166H13.667V10.166ZM13.167 11.166V9.66602H11.167V11.166H13.167ZM13.167 9.66602C13.167 8.8404 12.4926 8.16602 11.667 8.16602V10.166C11.388 10.166 11.167 9.94497 11.167 9.66602H13.167ZM11.667 8.16602C10.8414 8.16602 10.167 8.8404 10.167 9.66602H12.167C12.167 9.94497 11.9459 10.166 11.667 10.166V8.16602ZM10.167 9.66602V11.166H12.167V9.66602H10.167ZM11.167 10.166H9.66699V12.166H11.167V10.166ZM9.66699 10.166C8.84137 10.166 8.16699 10.8404 8.16699 11.666H10.167C10.167 11.945 9.94594 12.166 9.66699 12.166V10.166ZM8.16699 11.666C8.16699 12.4916 8.84137 13.166 9.66699 13.166V11.166C9.94594 11.166 10.167 11.3871 10.167 11.666H8.16699ZM9.66699 13.166H11.167V11.166H9.66699V13.166ZM10.167 12.166V13.666H12.167V12.166H10.167ZM10.167 13.666C10.167 14.4916 10.8414 15.166 11.667 15.166V13.166C11.9459 13.166 12.167 13.3871 12.167 13.666H10.167ZM11.667 15.166C12.4926 15.166 13.167 14.4916 13.167 13.666H11.167C11.167 13.3871 11.388 13.166 11.667 13.166V15.166ZM13.167 13.666V12.166H11.167V13.666H13.167ZM12.167 13.166H13.667V11.166H12.167V13.166ZM13.667 13.166C14.4926 13.166 15.167 12.4916 15.167 11.666H13.167C13.167 11.3871 13.388 11.166 13.667 11.166V13.166ZM15.167 11.666C15.167 10.8404 14.4926 10.166 13.667 10.166V12.166C13.388 12.166 13.167 11.945 13.167 11.666H15.167Z" fill="#1B1D1F" mask="url(#path-1-inside-1_3216_19244)"/>
<path d="M13.1831 6.49399V6.49398H13.18H10.4867C9.99392 6.49398 9.77686 6.40276 9.6772 6.31456C9.59327 6.24028 9.5 6.084 9.5 5.67398V2.65398C9.5 2.24834 9.59279 2.09091 9.67793 2.01526C9.77815 1.92622 9.9957 1.83398 10.4867 1.83398H13.18C13.671 1.83398 13.8885 1.92622 13.9887 2.01526C14.0739 2.09091 14.1667 2.24834 14.1667 2.65398V5.68065C14.1667 6.08667 14.0737 6.24333 13.9895 6.31789C13.8903 6.40563 13.6738 6.49708 13.1831 6.49399Z" fill="#1B1D1F" stroke="#1B1D1F"/>
<path d="M5.51615 6.49399V6.49398H5.51301H2.81967C2.32693 6.49398 2.10987 6.40276 2.01021 6.31456C1.92628 6.24028 1.83301 6.084 1.83301 5.67398V2.65398C1.83301 2.24834 1.9258 2.09091 2.01094 2.01526C2.11116 1.92622 2.32871 1.83398 2.81967 1.83398H5.51301C6.00397 1.83398 6.22152 1.92622 6.32174 2.01526C6.40688 2.09091 6.49967 2.24834 6.49967 2.65398V5.68065C6.49967 6.08667 6.40672 6.24333 6.32247 6.31789C6.22334 6.40563 6.00684 6.49708 5.51615 6.49399Z" fill="#1B1D1F" stroke="#1B1D1F"/>
<path d="M6.49967 10.4867V13.18C6.49967 13.6599 6.40013 13.8674 6.30029 13.9673C6.20044 14.0671 5.99293 14.1667 5.51301 14.1667H2.81967C2.33975 14.1667 2.13224 14.0671 2.03239 13.9673C1.93255 13.8674 1.83301 13.6599 1.83301 13.18V10.4867C1.83301 10.0067 1.93255 9.79923 2.03239 9.69939C2.13224 9.59954 2.33975 9.5 2.81967 9.5H5.51301C5.99293 9.5 6.20044 9.59954 6.30029 9.69939C6.40013 9.79923 6.49967 10.0067 6.49967 10.4867Z" fill="#1B1D1F" stroke="#1B1D1F"/>
</svg>
