<svg width="16" height="16" viewBox="0 0 16 16" fill="none" xmlns="http://www.w3.org/2000/svg">
<path d="M1.33301 4.66732V14.0007C1.33301 14.554 1.95967 14.8673 2.39967 14.534L3.53967 13.6807C3.80634 13.4807 4.17967 13.5073 4.41967 13.7473L5.52634 14.8607C5.78634 15.1207 6.21301 15.1207 6.47301 14.8607L7.59301 13.7407C7.82634 13.5073 8.19967 13.4807 8.45967 13.6807L9.59967 14.534C10.0397 14.8607 10.6663 14.5473 10.6663 14.0007V2.66732C10.6663 1.93398 11.2663 1.33398 11.9997 1.33398H4.66634H3.99967C1.99967 1.33398 1.33301 2.52732 1.33301 4.00065V4.66732Z" fill="#C6C8CB"/>
<path d="M12.007 1.33398V2.33398C12.447 2.33398 12.867 2.51398 13.1737 2.81398C13.4937 3.14065 13.667 3.56065 13.667 4.00065V5.61398C13.667 6.10732 13.447 6.33398 12.947 6.33398H11.667V2.67398C11.667 2.48732 11.8203 2.33398 12.007 2.33398V1.33398ZM12.007 1.33398C11.267 1.33398 10.667 1.93398 10.667 2.67398V7.33398H12.947C14.0003 7.33398 14.667 6.66732 14.667 5.61398V4.00065C14.667 3.26732 14.367 2.60065 13.887 2.11398C13.4003 1.63398 12.7403 1.34065 12.007 1.33398C12.0137 1.33398 12.007 1.33398 12.007 1.33398Z" fill="#C6C8CB"/>
</svg>
