<svg width="16" height="16" viewBox="0 0 16 16" fill="none" xmlns="http://www.w3.org/2000/svg">
<path d="M11.3334 2H4.66671C2.66671 2 1.33337 3 1.33337 5.33333V10C1.33337 12.3333 2.66671 13.3333 4.66671 13.3333H7.04671C7.44004 13.3333 7.76004 12.9867 7.70671 12.5933C7.64004 12.12 7.65337 11.6267 7.75337 11.12C8.10671 9.38667 9.53337 8.00667 11.28 7.72C12.1534 7.58 12.9867 7.7 13.72 8.02C14.1667 8.21333 14.6667 7.90667 14.6667 7.42V5.33333C14.6667 3 13.3334 2 11.3334 2ZM11.6467 5.72667L9.56004 7.39333C9.12004 7.74667 8.56004 7.92 8.00004 7.92C7.44004 7.92 6.87337 7.74667 6.44004 7.39333L4.35337 5.72667C4.14004 5.55333 4.10671 5.24 4.27337 5.02C4.44671 4.80667 4.76004 4.76667 4.97337 4.94L7.06004 6.60667C7.56671 7.01333 8.42671 7.01333 8.93337 6.60667L11.02 4.94C11.2334 4.76667 11.5534 4.8 11.72 5.02C11.8934 5.24 11.86 5.55333 11.6467 5.72667Z" fill="#C6C8CB"/>
<path d="M12 8.66797C10.16 8.66797 8.66663 10.1546 8.66663 12.0013C8.66663 13.8413 10.16 15.3346 12 15.3346C13.8466 15.3346 15.3333 13.8413 15.3333 12.0013C15.3333 10.1546 13.8466 8.66797 12 8.66797ZM13.3666 11.7013L13.12 11.9413L11.6666 13.4013C11.6 13.4613 11.4733 13.528 11.38 13.5413L10.7266 13.6346C10.4933 13.668 10.3266 13.5013 10.36 13.268L10.4533 12.6146C10.4666 12.5213 10.5266 12.3946 10.5933 12.328L12.0466 10.8813L12.2866 10.6346C12.4466 10.4746 12.6266 10.368 12.8133 10.368C12.9733 10.368 13.1533 10.4413 13.3533 10.6346C13.8 11.068 13.66 11.408 13.3666 11.7013Z" fill="#C6C8CB"/>
</svg>
