<svg width="16" height="16" viewBox="0 0 16 16" fill="none" xmlns="http://www.w3.org/2000/svg">
<path d="M11.333 2.66602H4.66634C2.66634 2.66602 1.33301 3.66602 1.33301 5.99935V8.37268C1.33301 8.61935 1.58634 8.77268 1.80634 8.67268C2.45967 8.37268 3.21301 8.25935 4.00634 8.39935C5.75968 8.71268 7.04634 10.3393 6.99967 12.1193C6.99301 12.3993 6.95301 12.6727 6.87967 12.9393C6.82634 13.146 6.99301 13.3393 7.20634 13.3393H11.333C13.333 13.3393 14.6663 12.3393 14.6663 10.006V5.99935C14.6663 3.66602 13.333 2.66602 11.333 2.66602ZM7.99967 9.66602C7.07967 9.66602 6.33301 8.91935 6.33301 7.99935C6.33301 7.07935 7.07967 6.33268 7.99967 6.33268C8.91967 6.33268 9.66634 7.07935 9.66634 7.99935C9.66634 8.91935 8.91967 9.66602 7.99967 9.66602ZM12.833 9.33268C12.833 9.60602 12.6063 9.83268 12.333 9.83268C12.0597 9.83268 11.833 9.60602 11.833 9.33268V6.66602C11.833 6.39268 12.0597 6.16602 12.333 6.16602C12.6063 6.16602 12.833 6.39268 12.833 6.66602V9.33268Z" fill="#C6C8CB"/>
<path d="M3.33366 9.33398C2.50033 9.33398 1.74699 9.72732 1.26033 10.3273C0.886992 10.7873 0.666992 11.3673 0.666992 12.0007C0.666992 13.474 1.86699 14.6673 3.33366 14.6673C4.49366 14.6673 5.48699 13.9273 5.84699 12.8873C5.94699 12.614 6.00033 12.314 6.00033 12.0007C6.00033 10.534 4.80699 9.33398 3.33366 9.33398ZM4.90699 13.1607C4.89366 13.2007 4.86699 13.2407 4.84033 13.2673L4.36033 13.7407C4.30033 13.8073 4.22033 13.834 4.13366 13.834C4.04699 13.834 3.96033 13.8073 3.90033 13.7407C3.79366 13.6407 3.78033 13.4807 3.84699 13.3607H2.50699C2.08033 13.3607 1.73366 13.014 1.73366 12.5807V12.514C1.73366 12.3273 1.88033 12.1873 2.06033 12.1873C2.24033 12.1873 2.38699 12.3273 2.38699 12.514V12.5807C2.38699 12.654 2.44033 12.714 2.51366 12.714H3.85366C3.78699 12.5873 3.80033 12.434 3.90699 12.3273C4.03366 12.2007 4.24033 12.2007 4.36033 12.3273L4.84033 12.8073C4.86699 12.834 4.89366 12.874 4.91366 12.914C4.94033 12.9873 4.94033 13.0807 4.90699 13.1607ZM4.93366 11.4873C4.93366 11.674 4.78699 11.814 4.60699 11.814C4.42699 11.814 4.28033 11.674 4.28033 11.4873V11.4207C4.28033 11.3473 4.22699 11.2873 4.15366 11.2873H2.82033C2.88699 11.414 2.87366 11.5673 2.76699 11.674C2.70699 11.734 2.62699 11.7673 2.53366 11.7673C2.45366 11.7673 2.36699 11.734 2.30699 11.674L1.82699 11.194C1.80033 11.1673 1.77366 11.1273 1.75366 11.0873C1.72699 11.0073 1.72699 10.9207 1.75366 10.8407C1.77366 10.8073 1.79366 10.7607 1.82699 10.734L2.30699 10.2607C2.43366 10.1273 2.64033 10.1273 2.76033 10.2607C2.86699 10.3607 2.88033 10.5207 2.81366 10.6407H4.15366C4.58033 10.6407 4.92699 10.9873 4.92699 11.4207V11.4873H4.93366Z" fill="#C6C8CB"/>
</svg>
