<svg width="16" height="16" viewBox="0 0 16 16" fill="none" xmlns="http://www.w3.org/2000/svg">
<path d="M13 5.33333C13.9205 5.33333 14.6667 4.58714 14.6667 3.66667C14.6667 2.74619 13.9205 2 13 2C12.0796 2 11.3334 2.74619 11.3334 3.66667C11.3334 4.58714 12.0796 5.33333 13 5.33333Z" fill="#C6C8CB"/>
<path d="M13 5.33333C13.9205 5.33333 14.6667 4.58714 14.6667 3.66667C14.6667 2.74619 13.9205 2 13 2C12.0796 2 11.3334 2.74619 11.3334 3.66667C11.3334 4.58714 12.0796 5.33333 13 5.33333Z" fill="#C6C8CB"/>
<path d="M13.8134 6.20536C13.3467 6.35203 12.8334 6.3787 12.3 6.24536C11.4067 6.01203 10.68 5.2987 10.4334 4.40536C10.3134 3.97203 10.3067 3.54536 10.38 3.1587C10.4667 2.73203 10.1667 2.33203 9.74004 2.33203H4.66671C2.66671 2.33203 1.33337 3.33203 1.33337 5.66536V10.332C1.33337 12.6654 2.66671 13.6654 4.66671 13.6654H11.3334C13.3334 13.6654 14.6667 12.6654 14.6667 10.332V6.8387C14.6667 6.3987 14.24 6.06537 13.8134 6.20536ZM10.3467 7.43203L9.56004 8.0587C9.12004 8.41203 8.56004 8.58536 8.00004 8.58536C7.44004 8.58536 6.87337 8.41203 6.44004 8.0587L4.35337 6.39203C4.14004 6.2187 4.10671 5.8987 4.27337 5.68536C4.44671 5.47203 4.76004 5.43203 4.97337 5.60536L7.06004 7.27203C7.56671 7.6787 8.42671 7.6787 8.93337 7.27203L9.72004 6.64536C9.93337 6.47203 10.2534 6.50536 10.42 6.72536C10.5934 6.9387 10.56 7.2587 10.3467 7.43203Z" fill="#C6C8CB"/>
</svg>
