<svg width="16" height="16" viewBox="0 0 16 16" fill="none" xmlns="http://www.w3.org/2000/svg">
<path d="M8.00016 1.33398C4.32016 1.33398 1.3335 4.32065 1.3335 8.00065C1.3335 11.6807 4.32016 14.6673 8.00016 14.6673C11.6802 14.6673 14.6668 11.6807 14.6668 8.00065C14.6668 4.32065 11.6802 1.33398 8.00016 1.33398ZM5.76683 9.84732C5.6935 10.0473 5.50016 10.174 5.30016 10.174C5.24016 10.174 5.18683 10.1673 5.12683 10.1407C4.58683 9.94065 4.1335 9.54732 3.84683 9.03398C3.18016 7.83398 3.5935 6.26732 4.76016 5.54065L6.32016 4.57398C6.8935 4.22065 7.56683 4.11398 8.20683 4.28065C8.84683 4.44732 9.38683 4.86732 9.7135 5.45398C10.3802 6.65398 9.96683 8.22065 8.80016 8.94732L8.62683 9.07398C8.40016 9.23398 8.08683 9.18065 7.92683 8.96065C7.76683 8.73398 7.82016 8.42065 8.04016 8.26065L8.24683 8.11398C8.9935 7.64732 9.24683 6.68065 8.84016 5.94065C8.64683 5.59398 8.3335 5.34732 7.96016 5.24732C7.58683 5.14732 7.1935 5.20732 6.8535 5.42065L5.28016 6.39398C4.56016 6.84065 4.30683 7.80732 4.7135 8.55398C4.88016 8.85398 5.14683 9.08732 5.46683 9.20732C5.72683 9.30065 5.86016 9.58732 5.76683 9.84732ZM11.2802 10.434L9.72016 11.4007C9.32683 11.6473 8.88683 11.7673 8.44016 11.7673C8.24016 11.7673 8.0335 11.7407 7.8335 11.6873C7.1935 11.5207 6.6535 11.1007 6.3335 10.514C5.66683 9.31398 6.08016 7.74732 7.24683 7.02065L7.42016 6.89398C7.64683 6.73398 7.96016 6.78732 8.12016 7.00732C8.28016 7.23398 8.22683 7.54732 8.00683 7.70732L7.80016 7.85398C7.0535 8.32065 6.80016 9.28732 7.20683 10.0273C7.40016 10.374 7.7135 10.6207 8.08683 10.7207C8.46016 10.8207 8.8535 10.7607 9.1935 10.5473L10.7535 9.58065C11.4735 9.13398 11.7268 8.16732 11.3202 7.42065C11.1535 7.12065 10.8868 6.88732 10.5668 6.76732C10.3068 6.67398 10.1735 6.38732 10.2735 6.12732C10.3668 5.86732 10.6602 5.73398 10.9135 5.83398C11.4535 6.03398 11.9068 6.42732 12.1935 6.94065C12.8535 8.14065 12.4468 9.70732 11.2802 10.434Z" fill="#9DA2A7"/>
</svg>
