<svg width="16" height="16" viewBox="0 0 16 16" fill="none" xmlns="http://www.w3.org/2000/svg">
<path d="M11.6933 5.87245C12.7831 5.87245 13.6666 4.98896 13.6666 3.89911C13.6666 2.80927 12.7831 1.92578 11.6933 1.92578C10.6035 1.92578 9.71997 2.80927 9.71997 3.89911C9.71997 4.98896 10.6035 5.87245 11.6933 5.87245Z" fill="#1B1D1F"/>
<path d="M4.30671 5.87245C5.39655 5.87245 6.28004 4.98896 6.28004 3.89911C6.28004 2.80927 5.39655 1.92578 4.30671 1.92578C3.21687 1.92578 2.33337 2.80927 2.33337 3.89911C2.33337 4.98896 3.21687 5.87245 4.30671 5.87245Z" fill="#1B1D1F"/>
<path d="M11.6933 14.0717C12.7831 14.0717 13.6666 13.1882 13.6666 12.0983C13.6666 11.0085 12.7831 10.125 11.6933 10.125C10.6035 10.125 9.71997 11.0085 9.71997 12.0983C9.71997 13.1882 10.6035 14.0717 11.6933 14.0717Z" fill="#1B1D1F"/>
<path d="M4.30671 14.0717C5.39655 14.0717 6.28004 13.1882 6.28004 12.0983C6.28004 11.0085 5.39655 10.125 4.30671 10.125C3.21687 10.125 2.33337 11.0085 2.33337 12.0983C2.33337 13.1882 3.21687 14.0717 4.30671 14.0717Z" fill="#1B1D1F"/>
</svg>
