<svg width="16" height="17" viewBox="0 0 16 17" fill="none" xmlns="http://www.w3.org/2000/svg">
<path d="M6.33301 9.66682C6.33301 10.3135 6.83302 10.8335 7.44635 10.8335H8.69967C9.233 10.8335 9.66634 10.3802 9.66634 9.81349C9.66634 9.20682 9.39968 8.98682 9.00635 8.84682L6.99967 8.14682C6.60634 8.00682 6.33968 7.79349 6.33968 7.18016C6.33968 6.62016 6.773 6.16016 7.30634 6.16016H8.55967C9.17301 6.16016 9.67301 6.68016 9.67301 7.32682" stroke="white" stroke-width="1.5" stroke-linecap="round" stroke-linejoin="round"/>
<path d="M8 5.5V11.5" stroke="white" stroke-width="1.5" stroke-linecap="round" stroke-linejoin="round"/>
<path d="M14.6663 8.50065C14.6663 12.1807 11.6797 15.1673 7.99967 15.1673C4.31967 15.1673 1.33301 12.1807 1.33301 8.50065C1.33301 4.82065 4.31967 1.83398 7.99967 1.83398" stroke="white" stroke-width="1.5" stroke-linecap="round" stroke-linejoin="round"/>
<path d="M14.6667 4.50065V1.83398H12" stroke="white" stroke-width="1.5" stroke-linecap="round" stroke-linejoin="round"/>
<path d="M11.333 5.16732L14.6663 1.83398" stroke="white" stroke-width="1.5" stroke-linecap="round" stroke-linejoin="round"/>
</svg>
