<svg width="24" height="24" viewBox="0 0 24 24" fill="none" xmlns="http://www.w3.org/2000/svg">
<path fill-rule="evenodd" clip-rule="evenodd" d="M15.976 4.00001C11.56 4.01601 7.98405 7.608 8.00005 12.024C8.01605 16.44 11.608 20.0159 16.024 19.9999C20.44 19.9839 24.016 16.392 24 11.976C23.984 7.56 20.392 3.99201 15.976 4.00001ZM17.808 12.08C18.432 12.296 19.272 12.76 19.272 14.192C19.272 15.424 18.304 16.416 17.12 16.416H16.6V16.88C16.6 17.208 16.328 17.48 16 17.48C15.672 17.48 15.4 17.208 15.4 16.88V16.416H15.112C13.8 16.416 12.736 15.312 12.736 13.952C12.736 13.624 13.008 13.352 13.336 13.352C13.664 13.352 13.936 13.624 13.936 13.952C13.936 14.648 14.464 15.216 15.112 15.216H15.4V12.512L14.192 12.08C13.568 11.864 12.728 11.4 12.728 9.96799C12.728 8.73599 13.696 7.744 14.88 7.744H15.4V7.28C15.4 6.952 15.672 6.68 16 6.68C16.328 6.68 16.6 6.952 16.6 7.28V7.744H16.888C18.2 7.744 19.264 8.84799 19.264 10.208C19.264 10.536 18.992 10.808 18.664 10.808C18.336 10.808 18.064 10.536 18.064 10.208C18.064 9.51199 17.536 8.94399 16.888 8.94399H16.6V11.648L17.808 12.08ZM14.5921 10.952C14.1841 10.808 13.9361 10.672 13.9361 9.97601C13.9361 9.40801 14.3601 8.94401 14.8801 8.94401H15.4001V11.232L14.5921 10.952ZM17.12 15.2158H16.608V12.9358L17.416 13.2158C17.824 13.3598 18.072 13.4958 18.072 14.1918C18.072 14.7518 17.64 15.2158 17.12 15.2158ZM2.16546 9.41183L5.03466 10.8464C6.32178 11.49 6.32178 12.5425 5.03466 13.186L2.16546 14.6206C0.234785 15.586 -0.552905 14.7949 0.412434 12.8676L0.704046 12.2877C0.787843 12.1168 0.787843 11.919 0.704046 11.7481L0.412434 11.1649C-0.552905 9.23754 0.238137 8.4465 2.16546 9.41183Z" fill="#1B1D1F"/>
</svg>
