<svg width="24" height="24" viewBox="0 0 24 24" fill="none" xmlns="http://www.w3.org/2000/svg">
<path d="M21.8522 7.57849C21.3633 5.08961 19.5327 4 16.9858 4H7.00284C4.00114 4 2 5.51398 2 9.0466V14.9534C2 17.4996 3.03468 18.9907 4.74019 19.633C4.99034 19.7247 5.26322 19.805 5.54747 19.8509C6.00227 19.9541 6.49119 20 7.00284 20H16.9972C19.9989 20 22 18.486 22 14.9534V9.0466C22 8.50753 21.9545 8.02581 21.8522 7.57849ZM6.34338 13.7262C6.34338 14.1964 5.95679 14.5864 5.49062 14.5864C5.02445 14.5864 4.63786 14.1964 4.63786 13.7262V10.2853C4.63786 9.81505 5.02445 9.42509 5.49062 9.42509C5.95679 9.42509 6.34338 9.81505 6.34338 10.2853V13.7262ZM11.9943 15.0337C10.3343 15.0337 8.99261 13.6803 8.99261 12.0057C8.99261 10.3312 10.3343 8.97778 11.9943 8.97778C13.6543 8.97778 14.996 10.3312 14.996 12.0057C14.996 13.6803 13.6543 15.0337 11.9943 15.0337ZM19.3394 13.7262C19.3394 14.1964 18.9528 14.5864 18.4866 14.5864C18.0205 14.5864 17.6339 14.1964 17.6339 13.7262V10.2853C17.6339 9.81505 18.0205 9.42509 18.4866 9.42509C18.9528 9.42509 19.3394 9.81505 19.3394 10.2853V13.7262Z" fill="#1B1D1F"/>
</svg>
