<svg width="20" height="20" viewBox="0 0 20 20" fill="none" xmlns="http://www.w3.org/2000/svg">
<path d="M10.0002 7.76602C10.9919 7.76602 11.8002 6.95768 11.8002 5.96602C11.8002 4.97435 10.9919 4.16602 10.0002 4.16602C9.00853 4.16602 8.2002 4.97435 8.2002 5.96602C8.2002 6.95768 9.00853 7.76602 10.0002 7.76602Z" stroke="#ADB0ED" stroke-width="1.5" stroke-linecap="round" stroke-linejoin="round"/>
<path d="M5.6584 15.8324C6.65006 15.8324 7.4584 15.0241 7.4584 14.0324C7.4584 13.0408 6.65006 12.2324 5.6584 12.2324C4.66673 12.2324 3.8584 13.0408 3.8584 14.0324C3.8584 15.0241 4.6584 15.8324 5.6584 15.8324Z" stroke="#ADB0ED" stroke-width="1.5" stroke-linecap="round" stroke-linejoin="round"/>
<path d="M14.342 15.8324C15.3337 15.8324 16.142 15.0241 16.142 14.0324C16.142 13.0408 15.3337 12.2324 14.342 12.2324C13.3503 12.2324 12.542 13.0408 12.542 14.0324C12.542 15.0241 13.3503 15.8324 14.342 15.8324Z" stroke="#ADB0ED" stroke-width="1.5" stroke-linecap="round" stroke-linejoin="round"/>
</svg>
