<svg width="16" height="16" viewBox="0 0 16 16" fill="none" xmlns="http://www.w3.org/2000/svg">
<path d="M10.7933 1.33398H5.20659C2.77992 1.33398 1.33325 2.78065 1.33325 5.20732V10.7873C1.33325 13.2207 2.77992 14.6673 5.20659 14.6673H10.7866C13.2133 14.6673 14.6599 13.2207 14.6599 10.794V5.20732C14.6666 2.78065 13.2199 1.33398 10.7933 1.33398ZM10.9133 9.75398L9.43325 11.234C9.07325 11.594 8.60659 11.7673 8.13992 11.7673C7.67325 11.7673 7.19992 11.5873 6.84659 11.234C6.13325 10.5207 6.13325 9.35398 6.84659 8.64065L7.78659 7.70065C7.97992 7.50732 8.29992 7.50732 8.49325 7.70065C8.68659 7.89398 8.68659 8.21398 8.49325 8.40732L7.55325 9.34732C7.22659 9.67398 7.22659 10.2007 7.55325 10.5273C7.87992 10.854 8.40659 10.854 8.73325 10.5273L10.2133 9.04732C10.6199 8.64065 10.8466 8.09399 10.8466 7.51398C10.8466 6.93398 10.6199 6.39398 10.2133 5.98065C9.39325 5.16065 7.96659 5.16065 7.14659 5.98065L5.52659 7.60065C4.83325 8.29398 4.83325 9.42732 5.52659 10.1273C5.71992 10.3207 5.71992 10.6407 5.52659 10.834C5.33325 11.0273 5.01325 11.0273 4.81992 10.834C3.73325 9.74732 3.73325 7.98065 4.81992 6.89398L6.43325 5.28065C7.03325 4.68065 7.82659 4.35398 8.67325 4.35398C9.51992 4.35398 10.3133 4.68065 10.9133 5.28065C11.5133 5.88065 11.8399 6.67398 11.8399 7.52065C11.8399 8.36732 11.5133 9.16065 10.9133 9.75398Z" fill="#9DA2A7"/>
</svg>
