<svg width="16" height="16" viewBox="0 0 16 16" fill="none" xmlns="http://www.w3.org/2000/svg">
<path d="M4.66699 3.33398C4.66699 2.22732 5.56033 1.33398 6.66699 1.33398H9.33366C10.4403 1.33398 11.3337 2.22732 11.3337 3.33398C11.3337 3.70065 11.0337 4.00065 10.667 4.00065H5.33366C4.96699 4.00065 4.66699 3.70065 4.66699 3.33398Z" fill="#9DA2A7"/>
<path d="M11.8337 10C11.8337 10.2733 11.607 10.5 11.3337 10.5H10.667V12.6667C10.667 13.7733 9.77366 14.6667 8.66699 14.6667H7.33366C6.22699 14.6667 5.33366 13.7733 5.33366 12.6667V10.5H4.66699C4.39366 10.5 4.16699 10.2733 4.16699 10C4.16699 9.72667 4.39366 9.5 4.66699 9.5H11.3337C11.607 9.5 11.8337 9.72667 11.8337 10Z" fill="#9DA2A7"/>
<path d="M12 4.66602H4C2.66667 4.66602 2 5.33268 2 6.66602V9.99935C2 11.3327 2.66667 11.9993 4 11.9993H4.25C4.48012 11.9993 4.66667 11.8128 4.66667 11.5827C4.66667 11.3526 4.4742 11.173 4.25894 11.0916C3.81746 10.9248 3.5 10.4962 3.5 9.99935C3.5 9.35935 4.02667 8.83268 4.66667 8.83268H11.3333C11.9733 8.83268 12.5 9.35935 12.5 9.99935C12.5 10.4962 12.1825 10.9248 11.7411 11.0916C11.5258 11.173 11.3333 11.3526 11.3333 11.5827C11.3333 11.8128 11.5199 11.9993 11.75 11.9993H12C13.3333 11.9993 14 11.3327 14 9.99935V6.66602C14 5.33268 13.3333 4.66602 12 4.66602ZM6.66667 7.83268H4.66667C4.39333 7.83268 4.16667 7.60602 4.16667 7.33268C4.16667 7.05935 4.39333 6.83268 4.66667 6.83268H6.66667C6.94 6.83268 7.16667 7.05935 7.16667 7.33268C7.16667 7.60602 6.94 7.83268 6.66667 7.83268Z" fill="#9DA2A7"/>
</svg>
