<svg width="16" height="16" viewBox="0 0 16 16" fill="none" xmlns="http://www.w3.org/2000/svg">
<path d="M8.00016 1.33398C4.32016 1.33398 1.3335 4.32065 1.3335 8.00065C1.3335 11.6807 4.32016 14.6673 8.00016 14.6673C11.6802 14.6673 14.6668 11.6807 14.6668 8.00065C14.6668 4.32065 11.6802 1.33398 8.00016 1.33398ZM7.74016 9.89398C7.74016 10.6207 7.1735 11.1873 6.44683 11.1873H5.46016C4.74683 11.1873 4.16683 10.6073 4.16683 9.89398V8.11398C4.16683 6.06065 4.6135 5.60065 5.80683 4.89398C5.88683 4.84732 5.9735 4.82732 6.06016 4.82732C6.2335 4.82732 6.40016 4.91398 6.4935 5.07398C6.6335 5.31398 6.5535 5.62065 6.32016 5.76065C5.5135 6.22732 5.2335 6.40065 5.18016 7.60732H6.4535C7.18016 7.60732 7.74683 8.17399 7.74683 8.90065V9.89398H7.74016ZM11.8335 9.89398C11.8335 10.6207 11.2668 11.1873 10.5402 11.1873H9.54683C8.8335 11.1873 8.2535 10.6073 8.2535 9.89398V8.11398C8.2535 6.06065 8.70016 5.60065 9.8935 4.89398C9.9735 4.84732 10.0602 4.82732 10.1468 4.82732C10.3202 4.82732 10.4868 4.91398 10.5802 5.07398C10.7202 5.31398 10.6402 5.62065 10.4068 5.76065C9.60016 6.24065 9.32016 6.41398 9.26683 7.62065H10.5402C11.2668 7.62065 11.8335 8.18732 11.8335 8.91398V9.89398Z" fill="#9DA2A7"/>
</svg>
