<svg width="16" height="16" viewBox="0 0 16 16" fill="none" xmlns="http://www.w3.org/2000/svg">
<path d="M7.99915 13.1673H6.21248C5.43915 13.1673 4.76581 12.7007 4.49915 11.9807C4.22581 11.2607 4.42581 10.4673 5.00581 9.95398L10.3325 5.29398C10.6525 5.01398 10.6591 4.63398 10.5658 4.37398C10.4658 4.11398 10.2125 3.83398 9.78581 3.83398H7.99915C7.72581 3.83398 7.49915 3.60732 7.49915 3.33398C7.49915 3.06065 7.72581 2.83398 7.99915 2.83398H9.78581C10.5591 2.83398 11.2325 3.30065 11.4991 4.02065C11.7725 4.74065 11.5725 5.53398 10.9925 6.04732L5.66581 10.7073C5.34581 10.9873 5.33915 11.3673 5.43248 11.6273C5.53248 11.8873 5.78581 12.1673 6.21248 12.1673H7.99915C8.27248 12.1673 8.49915 12.394 8.49915 12.6673C8.49915 12.9407 8.27248 13.1673 7.99915 13.1673Z" fill="#1B1D1F"/>
<path d="M13.3324 10H11.3324C10.599 10 9.99902 10.6 9.99902 11.3333V13.3333C9.99902 14.0667 10.599 14.6667 11.3324 14.6667H13.3324C14.0657 14.6667 14.6657 14.0667 14.6657 13.3333V11.3333C14.6657 10.6 14.0657 10 13.3324 10ZM12.339 13C11.9724 13 11.6724 12.7 11.6724 12.3333C11.6724 11.9667 11.9657 11.6667 12.339 11.6667H12.3457C12.7124 11.6667 13.0124 11.9667 13.0124 12.3333C13.0124 12.7 12.7124 13 12.339 13Z" fill="#1B1D1F"/>
<path d="M3.64583 1.33398C2.35917 1.33398 1.3125 2.38065 1.3125 3.66732C1.3125 4.95398 2.35917 6.00065 3.64583 6.00065C4.9325 6.00065 5.97917 4.95398 5.97917 3.66732C5.97917 2.38065 4.93917 1.33398 3.64583 1.33398ZM3.6725 4.33398C3.30583 4.33398 3.00583 4.03398 3.00583 3.66732C3.00583 3.30065 3.29917 3.00065 3.6725 3.00065H3.67917C4.04583 3.00065 4.34583 3.30065 4.34583 3.66732C4.34583 4.03398 4.04583 4.33398 3.6725 4.33398Z" fill="#1B1D1F"/>
</svg>
