<svg width="16" height="17" viewBox="0 0 16 17" fill="none" xmlns="http://www.w3.org/2000/svg">
<path d="M10.8332 15.4993C11.4775 15.4993 11.9998 14.977 11.9998 14.3327C11.9998 13.6884 11.4775 13.166 10.8332 13.166C10.1888 13.166 9.6665 13.6884 9.6665 14.3327C9.6665 14.977 10.1888 15.4993 10.8332 15.4993Z" fill="#C6C8CB"/>
<path d="M5.50016 15.4993C6.14449 15.4993 6.66683 14.977 6.66683 14.3327C6.66683 13.6884 6.14449 13.166 5.50016 13.166C4.85583 13.166 4.3335 13.6884 4.3335 14.3327C4.3335 14.977 4.85583 15.4993 5.50016 15.4993Z" fill="#C6C8CB"/>
<path d="M3.22683 3.12732L3.0935 4.76065C3.06683 5.07398 3.3135 5.33398 3.62683 5.33398H13.8335C14.1135 5.33398 14.3468 5.12065 14.3668 4.84065C14.4535 3.66065 13.5535 2.70065 12.3735 2.70065H4.18016C4.1135 2.40732 3.98016 2.12732 3.7735 1.89398C3.44016 1.54065 2.9735 1.33398 2.4935 1.33398H1.3335C1.06016 1.33398 0.833496 1.56065 0.833496 1.83398C0.833496 2.10732 1.06016 2.33398 1.3335 2.33398H2.4935C2.70016 2.33398 2.8935 2.42065 3.0335 2.56732C3.1735 2.72065 3.24016 2.92065 3.22683 3.12732Z" fill="#C6C8CB"/>
<path d="M13.6732 6.33398H3.44654C3.16654 6.33398 2.93987 6.54732 2.91321 6.82065L2.67321 9.72065C2.57987 10.8607 3.47321 11.834 4.61321 11.834H12.0265C13.0265 11.834 13.9065 11.014 13.9799 10.014L14.1999 6.90065C14.2265 6.59398 13.9865 6.33398 13.6732 6.33398Z" fill="#C6C8CB"/>
</svg>
