<svg width="16" height="16" viewBox="0 0 16 16" fill="none" xmlns="http://www.w3.org/2000/svg">
<path d="M13.9666 2.75398C13.7733 2.47398 13.5266 2.22732 13.2466 2.03398C12.6133 1.57398 11.7866 1.33398 10.7933 1.33398H5.20659C5.07325 1.33398 4.93992 1.34065 4.81325 1.35398C2.62659 1.49398 1.33325 2.91398 1.33325 5.20732V10.794C1.33325 11.7873 1.57325 12.614 2.03325 13.2473C2.22659 13.5273 2.47325 13.774 2.75325 13.9673C3.29992 14.3673 3.99325 14.6007 4.81325 14.654C4.93992 14.6607 5.07325 14.6673 5.20659 14.6673H10.7933C13.2199 14.6673 14.6666 13.2207 14.6666 10.794V5.20732C14.6666 4.21398 14.4266 3.38732 13.9666 2.75398ZM7.59325 10.5873H5.67992C5.40659 10.5873 5.17992 10.3607 5.17992 10.0873C5.17992 9.81398 5.40659 9.58732 5.67992 9.58732H6.34659V5.27398H4.63325C4.55992 5.27398 4.49992 5.33398 4.49992 5.40732V5.92732C4.49992 6.20065 4.27325 6.42065 3.99992 6.42065C3.72659 6.42065 3.49992 6.20065 3.49992 5.92065V5.40065C3.49992 4.77398 4.00659 4.26732 4.63325 4.26732H9.05992C9.68659 4.26732 10.1933 4.77398 10.1933 5.40065V5.92065C10.1933 6.19398 9.96659 6.42065 9.69325 6.42065C9.41992 6.42065 9.19325 6.19398 9.19325 5.92065V5.40065C9.19325 5.32732 9.13325 5.26732 9.05992 5.26732H7.34659V9.58732H7.59325C7.86659 9.58732 8.09325 9.81398 8.09325 10.0873C8.09325 10.3607 7.86659 10.5873 7.59325 10.5873ZM12.4999 8.15398C12.4999 8.42732 12.2733 8.65398 11.9999 8.65398C11.7266 8.65398 11.4999 8.42732 11.4999 8.15398V7.93398H10.4666V10.734H10.6999C10.9733 10.734 11.1999 10.9607 11.1999 11.234C11.1999 11.5073 10.9733 11.734 10.6999 11.734H9.23325C8.95992 11.734 8.73325 11.5073 8.73325 11.234C8.73325 10.9607 8.95992 10.734 9.23325 10.734H9.46659V7.93398H9.14659C8.87325 7.93398 8.64659 7.70732 8.64659 7.43398C8.64659 7.16065 8.87325 6.93398 9.14659 6.93398H11.5466C12.0733 6.93398 12.4999 7.36065 12.4999 7.88732V8.15398Z" fill="#9DA2A7"/>
</svg>
