<svg width="16" height="16" viewBox="0 0 16 16" fill="none" xmlns="http://www.w3.org/2000/svg">
<path d="M12.9866 1.88177L13.1733 2.26177C13.2666 2.44844 13.5 2.62177 13.7066 2.66177L13.96 2.70177C14.72 2.82844 14.9 3.38844 14.3533 3.94177L14.12 4.17511C13.9666 4.33511 13.88 4.64177 13.9266 4.85511L13.96 4.99511C14.1666 5.91511 13.68 6.26844 12.88 5.78844L12.7066 5.68844C12.5 5.56844 12.1666 5.56844 11.96 5.68844L11.7866 5.78844C10.98 6.27511 10.4933 5.91511 10.7066 4.99511L10.74 4.85511C10.7866 4.64177 10.7 4.33511 10.5466 4.17511L10.3133 3.93511C9.76664 3.38177 9.94664 2.82177 10.7066 2.69511L10.96 2.65511C11.16 2.62177 11.4 2.44177 11.4933 2.25511L11.68 1.87511C12.04 1.15511 12.6266 1.15511 12.9866 1.88177Z" fill="#C6C8CB"/>
<path d="M14.38 6.72536C14.14 6.8987 13.4667 7.2187 12.5067 6.72536C12.4 6.67203 12.2667 6.66536 12.16 6.72536C11.78 6.9187 11.4334 6.9987 11.16 6.9987C10.7334 6.9987 10.4334 6.83203 10.2867 6.72536C10.04 6.54536 9.52004 6.03203 9.70004 4.94536C9.72004 4.83203 9.68671 4.7187 9.61337 4.63203C9.15337 4.10536 8.90004 3.3987 9.08004 2.84536C9.14671 2.62536 9.00671 2.33203 8.78004 2.33203H4.66671C2.66671 2.33203 1.33337 3.33203 1.33337 5.66536V10.332C1.33337 12.6654 2.66671 13.6654 4.66671 13.6654H11.3334C13.3334 13.6654 14.6667 12.6654 14.6667 10.332V6.84537C14.6667 6.7187 14.4867 6.65203 14.38 6.72536ZM9.56004 8.0587C9.12004 8.41203 8.56004 8.58536 8.00004 8.58536C7.44004 8.58536 6.87337 8.41203 6.44004 8.0587L4.35337 6.39203C4.14004 6.2187 4.10671 5.8987 4.27337 5.68536C4.44671 5.47203 4.76004 5.43203 4.97337 5.60536L7.06004 7.27203C7.56671 7.6787 8.42671 7.6787 8.93337 7.27203C9.14671 7.0987 9.46004 7.13203 9.63337 7.35203C9.81337 7.56536 9.78004 7.88537 9.56004 8.0587Z" fill="#C6C8CB"/>
</svg>
