<svg width="17" height="17" viewBox="0 0 17 17" fill="none" xmlns="http://www.w3.org/2000/svg">
<path d="M4.3269 11.1673C4.40023 10.8407 4.2669 10.374 4.03357 10.1407L2.41356 8.52065C1.9069 8.01398 1.7069 7.47398 1.85356 7.00732C2.0069 6.54065 2.48023 6.22065 3.1869 6.10065L5.2669 5.75398C5.5669 5.70065 5.93356 5.43398 6.07356 5.16065L7.22023 2.86065C7.55357 2.20065 8.0069 1.83398 8.50023 1.83398C8.99357 1.83398 9.4469 2.20065 9.78023 2.86065L10.9269 5.16065C11.0136 5.33398 11.1936 5.50065 11.3869 5.61398L4.2069 12.794C4.11356 12.8873 3.95356 12.8007 3.98023 12.6673L4.3269 11.1673Z" fill="#F3935D"/>
<path d="M12.9667 10.1393C12.7267 10.3793 12.5934 10.8393 12.6734 11.1659L13.1334 13.1726C13.3267 14.0059 13.2067 14.6326 12.7934 14.9326C12.6267 15.0526 12.4267 15.1126 12.1934 15.1126C11.8534 15.1126 11.4534 14.9859 11.0134 14.7259L9.06003 13.5659C8.75337 13.3859 8.2467 13.3859 7.94003 13.5659L5.9867 14.7259C5.2467 15.1593 4.61337 15.2326 4.2067 14.9326C4.05337 14.8193 3.94003 14.6659 3.8667 14.4659L11.9734 6.35928C12.28 6.05261 12.7134 5.91261 13.1334 5.98595L13.8067 6.09928C14.5134 6.21928 14.9867 6.53928 15.14 7.00595C15.2867 7.47261 15.0867 8.01261 14.58 8.51928L12.9667 10.1393Z" fill="#F3935D"/>
</svg>
