<svg width="16" height="16" viewBox="0 0 16 16" fill="none" xmlns="http://www.w3.org/2000/svg">
<path d="M9.1665 8.5H8.1665H5.6665V11.16C5.6665 11.3467 5.81984 11.5 6.0065 11.5H9.1665C9.99317 11.5 10.6665 10.8267 10.6665 10C10.6665 9.17333 9.99317 8.5 9.1665 8.5Z" fill="#9DA2A7"/>
<path d="M9.6665 6C9.6665 5.17333 8.99317 4.5 8.1665 4.5H6.0065C5.81984 4.5 5.6665 4.65333 5.6665 4.84V7.5H8.1665C8.99317 7.5 9.6665 6.82667 9.6665 6Z" fill="#9DA2A7"/>
<path d="M13.9668 2.75398C13.7735 2.47398 13.5268 2.22732 13.2468 2.03398C12.6135 1.57398 11.7868 1.33398 10.7935 1.33398H5.20683C5.0735 1.33398 4.94016 1.34065 4.8135 1.35398C2.62683 1.49398 1.3335 2.91398 1.3335 5.20732V10.794C1.3335 11.7873 1.5735 12.614 2.0335 13.2473C2.22683 13.5273 2.4735 13.774 2.7535 13.9673C3.30016 14.3673 3.9935 14.6007 4.8135 14.654C4.94016 14.6607 5.0735 14.6673 5.20683 14.6673H10.7935C13.2202 14.6673 14.6668 13.2207 14.6668 10.794V5.20732C14.6668 4.21398 14.4268 3.38732 13.9668 2.75398ZM9.16683 12.5007H6.00683C5.26683 12.5007 4.66683 11.9007 4.66683 11.1607V8.00065V4.84065C4.66683 4.10065 5.26683 3.50065 6.00683 3.50065H8.16683C9.54683 3.50065 10.6668 4.62065 10.6668 6.00065C10.6668 6.64065 10.4202 7.22065 10.0202 7.66065C10.9735 8.01398 11.6668 8.92065 11.6668 10.0007C11.6668 11.3807 10.5468 12.5007 9.16683 12.5007Z" fill="#9DA2A7"/>
</svg>
