<svg width="16" height="16" viewBox="0 0 16 16" fill="none" xmlns="http://www.w3.org/2000/svg">
<path d="M13.9668 2.75398C13.7735 2.47398 13.5268 2.22732 13.2468 2.03398C12.6135 1.57398 11.7868 1.33398 10.7935 1.33398H5.20683C5.0735 1.33398 4.94016 1.34065 4.8135 1.35398C2.62683 1.49398 1.3335 2.91398 1.3335 5.20732V10.794C1.3335 11.7873 1.5735 12.614 2.0335 13.2473C2.22683 13.5273 2.4735 13.774 2.7535 13.9673C3.30016 14.3673 3.9935 14.6007 4.8135 14.654C4.94016 14.6607 5.0735 14.6673 5.20683 14.6673H10.7935C13.2202 14.6673 14.6668 13.2207 14.6668 10.794V5.20732C14.6668 4.21398 14.4268 3.38732 13.9668 2.75398ZM10.5802 5.00732H9.28016L7.78683 10.9873H9.0135C9.28683 10.9873 9.5135 11.214 9.5135 11.4873C9.5135 11.7607 9.28683 11.9873 9.0135 11.9873H5.42016C5.14683 11.9873 4.92016 11.7607 4.92016 11.4873C4.92016 11.214 5.14683 10.9873 5.42016 10.9873H6.7535L8.24683 5.00732H6.98683C6.7135 5.00732 6.48683 4.78065 6.48683 4.50732C6.48683 4.23398 6.7135 4.00732 6.98683 4.00732H10.5735C10.8468 4.00732 11.0735 4.23398 11.0735 4.50732C11.0735 4.78065 10.8535 5.00732 10.5802 5.00732Z" fill="#9DA2A7"/>
</svg>
