<svg width="16" height="16" viewBox="0 0 16 16" fill="none" xmlns="http://www.w3.org/2000/svg">
<path d="M13.9668 2.75398C13.7735 2.47398 13.5268 2.22732 13.2468 2.03398C12.6135 1.57398 11.7868 1.33398 10.7935 1.33398H5.20683C5.0735 1.33398 4.94016 1.34065 4.8135 1.35398C2.62683 1.49398 1.3335 2.91398 1.3335 5.20732V10.794C1.3335 11.7873 1.5735 12.614 2.0335 13.2473C2.22683 13.5273 2.4735 13.774 2.7535 13.9673C3.30016 14.3673 3.9935 14.6007 4.8135 14.654C4.94016 14.6607 5.0735 14.6673 5.20683 14.6673H10.7935C13.2202 14.6673 14.6668 13.2207 14.6668 10.794V5.20732C14.6668 4.21398 14.4268 3.38732 13.9668 2.75398ZM11.2202 12.6407H4.78016C4.50683 12.6407 4.28016 12.414 4.28016 12.1407C4.28016 11.8673 4.50683 11.6407 4.78016 11.6407H11.2268C11.5002 11.6407 11.7268 11.8673 11.7268 12.1407C11.7268 12.414 11.5002 12.6407 11.2202 12.6407ZM11.7202 7.08065C11.7202 9.13398 10.0535 10.8007 8.00016 10.8007C5.94683 10.8007 4.28016 9.13398 4.28016 7.08065V3.86065C4.28016 3.58732 4.50683 3.36065 4.78016 3.36065C5.0535 3.36065 5.28016 3.58732 5.28016 3.86065V7.08065C5.28016 8.58065 6.50016 9.80065 8.00016 9.80065C9.50016 9.80065 10.7202 8.58065 10.7202 7.08065V3.86065C10.7202 3.58732 10.9468 3.36065 11.2202 3.36065C11.4935 3.36065 11.7202 3.58732 11.7202 3.86065V7.08065Z" fill="#9DA2A7"/>
</svg>
