<svg width="16" height="16" viewBox="0 0 16 16" fill="none" xmlns="http://www.w3.org/2000/svg">
<path d="M9.3335 1.94732V7.48732C9.3335 8.16732 8.78016 8.72065 8.10016 8.72065H2.00016C1.6335 8.72065 1.3335 8.42065 1.3335 8.05398V3.79398C1.3335 2.43398 2.4335 1.33398 3.7935 1.33398H8.7135C9.06016 1.33398 9.3335 1.60732 9.3335 1.94732Z" fill="#C6C8CB"/>
<path d="M14.3335 10.334C14.5202 10.334 14.6668 10.4807 14.6668 10.6673V11.334C14.6668 12.4407 13.7735 13.334 12.6668 13.334C12.6668 12.234 11.7668 11.334 10.6668 11.334C9.56683 11.334 8.66683 12.234 8.66683 13.334H7.3335C7.3335 12.234 6.4335 11.334 5.3335 11.334C4.2335 11.334 3.3335 12.234 3.3335 13.334C2.22683 13.334 1.3335 12.4407 1.3335 11.334V10.0007C1.3335 9.63398 1.6335 9.33398 2.00016 9.33398H8.3335C9.2535 9.33398 10.0002 8.58732 10.0002 7.66732V4.00065C10.0002 3.63398 10.3002 3.33398 10.6668 3.33398H11.2268C11.7068 3.33398 12.1468 3.59398 12.3868 4.00732L12.8135 4.75398C12.8735 4.86065 12.7935 5.00065 12.6668 5.00065C11.7468 5.00065 11.0002 5.74732 11.0002 6.66732V8.66732C11.0002 9.58732 11.7468 10.334 12.6668 10.334H14.3335Z" fill="#C6C8CB"/>
<path d="M5.33333 14.6667C6.06971 14.6667 6.66667 14.0697 6.66667 13.3333C6.66667 12.597 6.06971 12 5.33333 12C4.59695 12 4 12.597 4 13.3333C4 14.0697 4.59695 14.6667 5.33333 14.6667Z" fill="#C6C8CB"/>
<path d="M10.6668 14.6667C11.4032 14.6667 12.0002 14.0697 12.0002 13.3333C12.0002 12.597 11.4032 12 10.6668 12C9.93045 12 9.3335 12.597 9.3335 13.3333C9.3335 14.0697 9.93045 14.6667 10.6668 14.6667Z" fill="#C6C8CB"/>
<path d="M14.6667 8.35333V9.33333H12.6667C12.3 9.33333 12 9.03333 12 8.66667V6.66667C12 6.3 12.3 6 12.6667 6H13.5267L14.4933 7.69333C14.6067 7.89333 14.6667 8.12 14.6667 8.35333Z" fill="#C6C8CB"/>
</svg>
