<svg width="20" height="20" viewBox="0 0 20 20" fill="none" xmlns="http://www.w3.org/2000/svg">
<path d="M10.0001 11.666H10.8335C11.7501 11.666 12.5001 10.916 12.5001 9.99935V1.66602H5.00012C3.75012 1.66602 2.65846 2.35767 2.0918 3.37434" stroke="#ADB0ED" stroke-width="1.5" stroke-linecap="round" stroke-linejoin="round"/>
<path d="M1.66699 14.166C1.66699 15.5493 2.78366 16.666 4.16699 16.666H5.00033C5.00033 15.7493 5.75033 14.9993 6.66699 14.9993C7.58366 14.9993 8.33366 15.7493 8.33366 16.666H11.667C11.667 15.7493 12.417 14.9993 13.3337 14.9993C14.2503 14.9993 15.0003 15.7493 15.0003 16.666H15.8337C17.217 16.666 18.3337 15.5493 18.3337 14.166V11.666H15.8337C15.3753 11.666 15.0003 11.291 15.0003 10.8327V8.33268C15.0003 7.87435 15.3753 7.49935 15.8337 7.49935H16.9086L15.4837 5.00769C15.1837 4.49102 14.6337 4.16602 14.0337 4.16602H12.5003V9.99935C12.5003 10.916 11.7503 11.666 10.8337 11.666H10.0003" stroke="#ADB0ED" stroke-width="1.5" stroke-linecap="round" stroke-linejoin="round"/>
<path d="M6.66667 18.3333C7.58714 18.3333 8.33333 17.5871 8.33333 16.6667C8.33333 15.7462 7.58714 15 6.66667 15C5.74619 15 5 15.7462 5 16.6667C5 17.5871 5.74619 18.3333 6.66667 18.3333Z" stroke="#ADB0ED" stroke-width="1.5" stroke-linecap="round" stroke-linejoin="round"/>
<path d="M13.3337 18.3333C14.2541 18.3333 15.0003 17.5871 15.0003 16.6667C15.0003 15.7462 14.2541 15 13.3337 15C12.4132 15 11.667 15.7462 11.667 16.6667C11.667 17.5871 12.4132 18.3333 13.3337 18.3333Z" stroke="#ADB0ED" stroke-width="1.5" stroke-linecap="round" stroke-linejoin="round"/>
<path d="M18.3333 10V11.6667H15.8333C15.375 11.6667 15 11.2917 15 10.8333V8.33333C15 7.875 15.375 7.5 15.8333 7.5H16.9083L18.3333 10Z" stroke="#ADB0ED" stroke-width="1.5" stroke-linecap="round" stroke-linejoin="round"/>
<path d="M0.833008 6.66602H5.83301" stroke="#ADB0ED" stroke-width="1.5" stroke-linecap="round" stroke-linejoin="round"/>
<path d="M2.5 9.16602H5.83333" stroke="#ADB0ED" stroke-width="1.5" stroke-linecap="round" stroke-linejoin="round"/>
<path d="M4.16699 11.666H5.83366" stroke="#ADB0ED" stroke-width="1.5" stroke-linecap="round" stroke-linejoin="round"/>
</svg>
