<svg width="100" height="100" viewBox="0 0 100 100" fill="none" xmlns="http://www.w3.org/2000/svg">
<g clip-path="url(#clip0_6141_184072)">
<path d="M68 0H32C14.3269 0 0 14.3269 0 32V68C0 85.6731 14.3269 100 32 100H68C85.6731 100 100 85.6731 100 68V32C100 14.3269 85.6731 0 68 0Z" fill="#631AFF"/>
<mask id="mask0_6141_184072" style="mask-type:luminance" maskUnits="userSpaceOnUse" x="26" y="26" width="48" height="48">
<path d="M26 26H74V74H26V26Z" fill="white"/>
</mask>
<g mask="url(#mask0_6141_184072)">
<path d="M73.9621 50.0001C61.0961 53.3221 53.3221 61.0981 50.0001 73.9621C46.6781 61.0981 38.9021 53.3221 26.0381 50.0001C38.9021 46.6781 46.6781 38.9021 50.0001 26.0381C53.3221 38.9021 61.0971 46.6781 73.9621 50.0001Z" fill="#FCFCFA"/>
</g>
</g>
<defs>
<clipPath id="clip0_6141_184072">
<rect width="100" height="100" fill="white"/>
</clipPath>
</defs>
</svg>
