<svg width="16" height="15" viewBox="0 0 16 15" fill="none" xmlns="http://www.w3.org/2000/svg">
<path d="M14.6668 13.1658H14.0002V5.6525C14.0002 5.23917 13.8135 4.8525 13.4868 4.59917L12.6668 3.95917L12.6535 2.32583C12.6535 1.95917 12.3535 1.66583 11.9868 1.66583H9.7135L8.82016 0.9725C8.34016 0.5925 7.66016 0.5925 7.18016 0.9725L2.5135 4.59917C2.18683 4.8525 2.00016 5.23917 2.00016 5.64583L1.96683 13.1658H1.3335C1.06016 13.1658 0.833496 13.3925 0.833496 13.6658C0.833496 13.9392 1.06016 14.1658 1.3335 14.1658H14.6668C14.9402 14.1658 15.1668 13.9392 15.1668 13.6658C15.1668 13.3925 14.9402 13.1658 14.6668 13.1658ZM4.3335 7.49917V6.49917C4.3335 6.1325 4.6335 5.8325 5.00016 5.8325H6.3335C6.70016 5.8325 7.00016 6.1325 7.00016 6.49917V7.49917C7.00016 7.86583 6.70016 8.16583 6.3335 8.16583H5.00016C4.6335 8.16583 4.3335 7.86583 4.3335 7.49917ZM9.66683 13.1658H6.3335V11.3325C6.3335 10.7792 6.78016 10.3325 7.3335 10.3325H8.66683C9.22016 10.3325 9.66683 10.7792 9.66683 11.3325V13.1658ZM11.6668 7.49917C11.6668 7.86583 11.3668 8.16583 11.0002 8.16583H9.66683C9.30016 8.16583 9.00016 7.86583 9.00016 7.49917V6.49917C9.00016 6.1325 9.30016 5.8325 9.66683 5.8325H11.0002C11.3668 5.8325 11.6668 6.1325 11.6668 6.49917V7.49917Z" fill="#C6C8CB"/>
</svg>
