<svg width="16" height="14" viewBox="0 0 16 14" fill="none" xmlns="http://www.w3.org/2000/svg">
<path d="M14.6668 12.6658H14.0002V5.1525C14.0002 4.73917 13.8135 4.3525 13.4868 4.09917L12.6668 3.45917L12.6535 1.82583C12.6535 1.45917 12.3535 1.16583 11.9868 1.16583H9.7135L8.82016 0.4725C8.34016 0.0925 7.66016 0.0925 7.18016 0.4725L2.5135 4.09917C2.18683 4.3525 2.00016 4.73917 2.00016 5.14583L1.96683 12.6658H1.3335C1.06016 12.6658 0.833496 12.8925 0.833496 13.1658C0.833496 13.4392 1.06016 13.6658 1.3335 13.6658H14.6668C14.9402 13.6658 15.1668 13.4392 15.1668 13.1658C15.1668 12.8925 14.9402 12.6658 14.6668 12.6658ZM4.3335 6.99917V5.99917C4.3335 5.6325 4.6335 5.3325 5.00016 5.3325H6.3335C6.70016 5.3325 7.00016 5.6325 7.00016 5.99917V6.99917C7.00016 7.36583 6.70016 7.66583 6.3335 7.66583H5.00016C4.6335 7.66583 4.3335 7.36583 4.3335 6.99917ZM9.66683 12.6658H6.3335V10.8325C6.3335 10.2792 6.78016 9.8325 7.3335 9.8325H8.66683C9.22016 9.8325 9.66683 10.2792 9.66683 10.8325V12.6658ZM11.6668 6.99917C11.6668 7.36583 11.3668 7.66583 11.0002 7.66583H9.66683C9.30016 7.66583 9.00016 7.36583 9.00016 6.99917V5.99917C9.00016 5.6325 9.30016 5.3325 9.66683 5.3325H11.0002C11.3668 5.3325 11.6668 5.6325 11.6668 5.99917V6.99917Z" fill="#C6C8CB"/>
</svg>
