<svg width="25" height="24" viewBox="0 0 25 24" fill="none" xmlns="http://www.w3.org/2000/svg">
<path d="M22.8 10.9692V13.0292C22.8 13.5792 22.36 14.0292 21.8 14.0492H19.84C18.76 14.0492 17.77 13.2592 17.68 12.1792C17.62 11.5492 17.86 10.9592 18.28 10.5492C18.65 10.1692 19.16 9.94922 19.72 9.94922H21.8C22.36 9.96922 22.8 10.4192 22.8 10.9692Z" fill="#1B1D1F"/>
<path d="M21.2698 15.55H19.8398C17.9398 15.55 16.3398 14.12 16.1798 12.3C16.0898 11.26 16.4698 10.22 17.2298 9.48C17.8698 8.82 18.7598 8.45 19.7198 8.45H21.2698C21.5598 8.45 21.7998 8.21 21.7698 7.92C21.5498 5.49 19.9398 3.83 17.5498 3.55C17.3098 3.51 17.0598 3.5 16.7998 3.5H7.7998C7.5198 3.5 7.2498 3.52 6.9898 3.56C4.4398 3.88 2.7998 5.78 2.7998 8.5V15.5C2.7998 18.26 5.0398 20.5 7.7998 20.5H16.7998C19.5998 20.5 21.5298 18.75 21.7698 16.08C21.7998 15.79 21.5598 15.55 21.2698 15.55ZM13.7998 9.75H7.7998C7.3898 9.75 7.0498 9.41 7.0498 9C7.0498 8.59 7.3898 8.25 7.7998 8.25H13.7998C14.2098 8.25 14.5498 8.59 14.5498 9C14.5498 9.41 14.2098 9.75 13.7998 9.75Z" fill="#1B1D1F"/>
</svg>
