<svg width="20" height="20" viewBox="0 0 20 20" fill="none" xmlns="http://www.w3.org/2000/svg">
<path d="M10.5505 2.0978L10.5255 2.15613L8.10879 7.76446H5.73379C5.16712 7.76446 4.62546 7.88113 4.13379 8.08946L5.59212 4.60613L5.62546 4.5228L5.68379 4.38946C5.70046 4.33946 5.71712 4.28946 5.74212 4.2478C6.83379 1.7228 8.06712 1.1478 10.5505 2.0978Z" stroke="#ADB0ED" stroke-width="1.5" stroke-linecap="round" stroke-linejoin="round"/>
<path d="M15.0417 7.93099C14.6667 7.81432 14.2667 7.76432 13.8667 7.76432H8.1084L9.31673 4.96016L10.5251 2.15599L10.5501 2.09766C10.6751 2.13932 10.7917 2.19766 10.9167 2.24766L12.7584 3.02266C13.7834 3.44766 14.5001 3.88932 14.9334 4.42266C15.0167 4.52266 15.0834 4.61432 15.1417 4.72266C15.2167 4.83932 15.2751 4.95599 15.3084 5.08099C15.3417 5.15599 15.3667 5.23099 15.3834 5.29766C15.6084 5.99766 15.4751 6.85599 15.0417 7.93099Z" stroke="#ADB0ED" stroke-width="1.5" stroke-linecap="round" stroke-linejoin="round"/>
<path d="M17.9351 11.8323V13.4573C17.9351 13.624 17.9268 13.7906 17.9184 13.9573C17.7601 16.8656 16.1351 18.3323 13.0518 18.3323H6.55176C6.35176 18.3323 6.15176 18.3156 5.96009 18.2906C3.31009 18.1156 1.89342 16.699 1.71842 14.049C1.69342 13.8573 1.67676 13.6573 1.67676 13.4573V11.8323C1.67676 10.1573 2.69342 8.71563 4.14342 8.09063C4.64342 7.88229 5.17676 7.76562 5.74342 7.76562H13.8768C14.2851 7.76562 14.6851 7.82396 15.0518 7.93229C16.7101 8.44063 17.9351 9.99063 17.9351 11.8323Z" stroke="#ADB0ED" stroke-width="1.5" stroke-linecap="round" stroke-linejoin="round"/>
<path d="M5.59199 4.60742L4.13366 8.09076C2.68366 8.71576 1.66699 10.1574 1.66699 11.8324V9.39076C1.66699 7.02409 3.35033 5.04909 5.59199 4.60742Z" stroke="#ADB0ED" stroke-width="1.5" stroke-linecap="round" stroke-linejoin="round"/>
<path d="M17.9322 9.39037V11.832C17.9322 9.9987 16.7155 8.44036 15.0488 7.94036C15.4822 6.85703 15.6072 6.00703 15.3988 5.2987C15.3822 5.2237 15.3572 5.1487 15.3238 5.08203C16.8738 5.88203 17.9322 7.5237 17.9322 9.39037Z" stroke="#ADB0ED" stroke-width="1.5" stroke-linecap="round" stroke-linejoin="round"/>
</svg>
